# Blender v2.78 (sub 0) OBJ File: 'p-logo-flat.blend'
# www.blender.org
mtllib p-logo-flat.mtl
o Curve
v -0.365956 0.322807 0.119320
v 0.186550 1.279383 0.119320
v 0.554606 1.279383 0.119320
v 0.922662 0.641946 0.119320
v 0.554606 0.004510 0.119320
v 0.186550 0.004510 0.119320
v 0.554606 0.641946 0.119320
v 0.370157 0.961086 0.119320
v -0.182349 0.004510 0.119320
v -0.550405 0.004510 0.119320
v -0.918462 0.641946 0.119320
v -0.550405 1.279383 0.119320
v -0.182349 1.279383 0.119320
v -0.550405 0.641946 0.119320
v -0.365956 0.322807 -0.119418
v 0.186550 1.279383 -0.119418
v 0.554606 1.279383 -0.119418
v 0.922662 0.641946 -0.119418
v 0.554606 0.004510 -0.119418
v 0.186550 0.004510 -0.119418
v 0.554606 0.641946 -0.119418
v 0.370157 0.961086 -0.119418
v -0.182349 0.004510 -0.119418
v -0.550405 0.004510 -0.119418
v -0.918462 0.641946 -0.119418
v -0.550405 1.279383 -0.119418
v -0.182349 1.279383 -0.119418
v -0.550405 0.641946 -0.119418
v -0.365956 0.322807 -0.119418
v -0.365956 0.322807 0.119320
v 0.186550 1.279383 -0.119418
v 0.186550 1.279383 0.119320
v 0.554606 1.279383 -0.119418
v 0.554606 1.279383 0.119320
v 0.922662 0.641946 -0.119418
v 0.922662 0.641946 0.119320
v 0.554606 0.004510 -0.119418
v 0.554606 0.004510 0.119320
v 0.186550 0.004510 -0.119418
v 0.186550 0.004510 0.119320
v 0.554606 0.641946 -0.119418
v 0.554606 0.641946 0.119320
v 0.370157 0.961086 -0.119418
v 0.370157 0.961086 0.119320
v -0.182349 0.004510 -0.119418
v -0.182349 0.004510 0.119320
v -0.550405 0.004510 -0.119418
v -0.550405 0.004510 0.119320
v -0.918462 0.641946 -0.119418
v -0.918462 0.641946 0.119320
v -0.550405 1.279383 -0.119418
v -0.550405 1.279383 0.119320
v -0.182349 1.279383 -0.119418
v -0.182349 1.279383 0.119320
v -0.550405 0.641946 -0.119418
v -0.550405 0.641946 0.119320
vn 0.0000 -0.0000 1.0000
vn 0.0000 0.0000 -1.0000
vn -0.0001 1.0000 0.0000
vn -0.4999 0.8661 0.0000
vn 0.5000 0.8660 0.0000
vn 1.0000 0.0000 0.0000
vn 0.5000 -0.8660 0.0000
vn -0.8660 -0.5000 0.0000
vn -1.0000 -0.0002 0.0000
vn 0.0001 -1.0000 0.0000
vn 0.4999 -0.8661 0.0000
vn -0.5000 -0.8660 0.0000
vn -1.0000 0.0000 0.0000
vn -0.5000 0.8660 0.0000
vn 0.8660 0.5000 0.0000
vn 1.0000 0.0002 0.0000
usemtl SVGMat
s off
f 11//1 13//1 12//1
f 11//1 14//1 13//1
f 1//1 3//1 2//1
f 1//1 8//1 3//1
f 8//1 4//1 3//1
f 1//1 9//1 8//1
f 7//1 4//1 8//1
f 10//1 14//1 11//1
f 10//1 1//1 14//1
f 6//1 4//1 7//1
f 6//1 5//1 4//1
f 10//1 9//1 1//1
f 27//2 25//2 26//2
f 28//2 25//2 27//2
f 17//2 15//2 16//2
f 22//2 15//2 17//2
f 18//2 22//2 17//2
f 23//2 15//2 22//2
f 18//2 21//2 22//2
f 28//2 24//2 25//2
f 15//2 24//2 28//2
f 18//2 20//2 21//2
f 19//2 20//2 18//2
f 23//2 24//2 15//2
s 1
f 30//3 32//4 31//4 29//3
f 32//4 34//5 33//5 31//4
f 34//5 36//6 35//6 33//5
f 36//6 38//7 37//7 35//6
f 38//7 40//8 39//8 37//7
f 40//8 42//9 41//9 39//8
f 42//9 44//10 43//10 41//9
f 44//10 46//11 45//11 43//10
f 46//11 48//12 47//12 45//11
f 48//12 50//13 49//13 47//12
f 50//13 52//14 51//14 49//13
f 52//14 54//15 53//15 51//14
f 54//15 56//16 55//16 53//15
f 56//16 30//3 29//3 55//16
