# Blender v2.78 (sub 0) OBJ File: 'p-logo.blend'
# www.blender.org
mtllib p-logo.mtl
o Curve.022
v 0.370157 0.961086 0.089478
v 0.738213 0.961086 0.089478
v 0.554606 0.641946 0.089478
v 0.370157 0.961086 -0.089576
v 0.738213 0.961086 -0.089576
v 0.554606 0.641946 -0.089576
v 0.370157 0.961086 -0.089576
v 0.370157 0.961086 0.089478
v 0.738213 0.961086 -0.089576
v 0.738213 0.961086 0.089478
v 0.554606 0.641946 -0.089576
v 0.554606 0.641946 0.089478
vn 0.0000 -0.0000 1.0000
vn 0.0000 0.0000 -1.0000
vn -0.8661 0.4998 0.0000
vn 0.8656 0.5007 0.0000
vn 0.0010 -1.0000 0.0000
usemtl SVGMat
s off
f 3//1 2//1 1//1
f 5//2 6//2 4//2
s 1
f 8//3 10//4 9//4 7//3
f 10//4 12//5 11//5 9//4
f 12//5 8//3 7//3 11//5
o Curve.021
v 0.554606 1.279383 0.119320
v 0.738213 0.961086 0.119320
v 0.370157 0.961086 0.119320
v 0.554606 1.279383 -0.119418
v 0.738213 0.961086 -0.119418
v 0.370157 0.961086 -0.119418
v 0.554606 1.279383 -0.119418
v 0.554606 1.279383 0.119320
v 0.738213 0.961086 -0.119418
v 0.738213 0.961086 0.119320
v 0.370157 0.961086 -0.119418
v 0.370157 0.961086 0.119320
vn 0.0000 -0.0000 1.0000
vn 0.0000 0.0000 -1.0000
vn 0.0010 1.0000 0.0000
vn 0.8659 -0.5001 0.0000
vn -0.8664 -0.4993 0.0000
usemtl SVGMat
s off
f 15//6 14//6 13//6
f 17//7 18//7 16//7
s 1
f 20//8 22//9 21//9 19//8
f 22//9 24//10 23//10 21//9
f 24//10 20//8 19//8 23//10
o Curve.020
v 0.370157 0.961086 0.089478
v 0.185707 1.279383 0.089478
v 0.554606 1.279383 0.089478
v 0.370157 0.961086 -0.089576
v 0.185707 1.279383 -0.089576
v 0.554606 1.279383 -0.089576
v 0.370157 0.961086 -0.089576
v 0.370157 0.961086 0.089478
v 0.185707 1.279383 -0.089576
v 0.185707 1.279383 0.089478
v 0.554606 1.279383 -0.089576
v 0.554606 1.279383 0.089478
vn 0.0000 -0.0000 1.0000
vn 0.0000 0.0000 -1.0000
vn 0.0000 -1.0000 0.0000
vn -0.8664 0.4993 0.0000
vn 0.8664 0.4993 0.0000
usemtl SVGMat
s off
f 25//11 27//11 26//11
f 30//12 28//12 29//12
s 1
f 32//13 34//14 33//14 31//13
f 34//14 36//15 35//15 33//14
f 36//15 32//13 31//13 35//15
o Curve.019
v -0.734012 0.322807 0.119320
v -0.365956 0.322807 0.119320
v -0.550405 0.004510 0.119320
v -0.734012 0.322807 -0.119418
v -0.365956 0.322807 -0.119418
v -0.550405 0.004510 -0.119418
v -0.734012 0.322807 -0.119418
v -0.734012 0.322807 0.119320
v -0.365956 0.322807 -0.119418
v -0.365956 0.322807 0.119320
v -0.550405 0.004510 -0.119418
v -0.550405 0.004510 0.119320
vn 0.0000 -0.0000 1.0000
vn 0.0000 0.0000 -1.0000
vn -0.8659 0.5001 0.0000
vn 0.8664 0.4993 0.0000
vn -0.0010 -1.0000 0.0000
usemtl SVGMat
s off
f 39//16 38//16 37//16
f 41//17 42//17 40//17
s 1
f 44//18 46//19 45//19 43//18
f 46//19 48//20 47//20 45//19
f 48//20 44//18 43//18 47//20
o Curve.018
v -0.550405 0.641946 0.089478
v -0.365956 0.322807 0.089478
v -0.734012 0.322807 0.089478
v -0.550405 0.641946 -0.089576
v -0.365956 0.322807 -0.089576
v -0.734012 0.322807 -0.089576
v -0.550405 0.641946 -0.089576
v -0.550405 0.641946 0.089478
v -0.365956 0.322807 -0.089576
v -0.365956 0.322807 0.089478
v -0.734012 0.322807 -0.089576
v -0.734012 0.322807 0.089478
vn 0.0000 -0.0000 1.0000
vn 0.0000 0.0000 -1.0000
vn -0.0010 1.0000 0.0000
vn 0.8661 -0.4998 0.0000
vn -0.8656 -0.5007 0.0000
usemtl SVGMat
s off
f 51//21 50//21 49//21
f 53//22 54//22 52//22
s 1
f 56//23 58//24 57//24 55//23
f 58//24 60//25 59//25 57//24
f 60//25 56//23 55//23 59//25
o Curve.017
v 0.738213 0.961086 0.119320
v 0.922662 0.641946 0.119320
v 0.554606 0.641946 0.119320
v 0.738213 0.961086 -0.119418
v 0.922662 0.641946 -0.119418
v 0.554606 0.641946 -0.119418
v 0.738213 0.961086 -0.119418
v 0.738213 0.961086 0.119320
v 0.922662 0.641946 -0.119418
v 0.922662 0.641946 0.119320
v 0.554606 0.641946 -0.119418
v 0.554606 0.641946 0.119320
vn 0.0000 -0.0000 1.0000
vn 0.0000 0.0000 -1.0000
vn -0.0010 1.0000 0.0000
vn 0.8661 -0.4998 0.0000
vn -0.8656 -0.5007 0.0000
usemtl SVGMat
s off
f 63//26 62//26 61//26
f 65//27 66//27 64//27
s 1
f 68//28 70//29 69//29 67//28
f 70//29 72//30 71//30 69//29
f 72//30 68//28 67//28 71//30
o Curve.016
v 0.554606 0.641946 0.089478
v 0.922662 0.641946 0.089478
v 0.738213 0.322807 0.089478
v 0.554606 0.641946 -0.089576
v 0.922662 0.641946 -0.089576
v 0.738213 0.322807 -0.089576
v 0.554606 0.641946 -0.089576
v 0.554606 0.641946 0.089478
v 0.922662 0.641946 -0.089576
v 0.922662 0.641946 0.089478
v 0.738213 0.322807 -0.089576
v 0.738213 0.322807 0.089478
vn 0.0000 -0.0000 1.0000
vn 0.0000 0.0000 -1.0000
vn -0.8656 0.5007 0.0000
vn 0.8661 0.4998 0.0000
vn -0.0010 -1.0000 0.0000
usemtl SVGMat
s off
f 75//31 74//31 73//31
f 77//32 78//32 76//32
s 1
f 80//33 82//34 81//34 79//33
f 82//34 84//35 83//35 81//34
f 84//35 80//33 79//33 83//35
o Curve.015
v 0.554606 0.641946 0.119320
v 0.738213 0.322807 0.119320
v 0.370157 0.322807 0.119320
v 0.554606 0.641946 -0.119418
v 0.738213 0.322807 -0.119418
v 0.370157 0.322807 -0.119418
v 0.554606 0.641946 -0.119418
v 0.554606 0.641946 0.119320
v 0.738213 0.322807 -0.119418
v 0.738213 0.322807 0.119320
v 0.370157 0.322807 -0.119418
v 0.370157 0.322807 0.119320
vn 0.0000 -0.0000 1.0000
vn 0.0000 0.0000 -1.0000
vn 0.0010 1.0000 0.0000
vn 0.8656 -0.5007 0.0000
vn -0.8661 -0.4998 0.0000
usemtl SVGMat
s off
f 87//36 86//36 85//36
f 89//37 90//37 88//37
s 1
f 92//38 94//39 93//39 91//38
f 94//39 96//40 95//40 93//39
f 96//40 92//38 91//38 95//40
o Curve.014
v 0.370157 0.322807 0.089478
v 0.738213 0.322807 0.089478
v 0.554606 0.004510 0.089478
v 0.370157 0.322807 -0.089576
v 0.738213 0.322807 -0.089576
v 0.554606 0.004510 -0.089576
v 0.370157 0.322807 -0.089576
v 0.370157 0.322807 0.089478
v 0.738213 0.322807 -0.089576
v 0.738213 0.322807 0.089478
v 0.554606 0.004510 -0.089576
v 0.554606 0.004510 0.089478
vn 0.0000 -0.0000 1.0000
vn 0.0000 0.0000 -1.0000
vn -0.8664 0.4993 0.0000
vn 0.8659 0.5001 0.0000
vn 0.0010 -1.0000 0.0000
usemtl SVGMat
s off
f 99//41 98//41 97//41
f 101//42 102//42 100//42
s 1
f 104//43 106//44 105//44 103//43
f 106//44 108//45 107//45 105//44
f 108//45 104//43 103//43 107//45
o Curve.013
v 0.370157 0.322807 0.119320
v 0.554606 0.004510 0.119320
v 0.186550 0.004510 0.119320
v 0.370157 0.322807 -0.119418
v 0.554606 0.004510 -0.119418
v 0.186550 0.004510 -0.119418
v 0.370157 0.322807 -0.119418
v 0.370157 0.322807 0.119320
v 0.554606 0.004510 -0.119418
v 0.554606 0.004510 0.119320
v 0.186550 0.004510 -0.119418
v 0.186550 0.004510 0.119320
vn 0.0000 -0.0000 1.0000
vn 0.0000 0.0000 -1.0000
vn -0.0010 1.0000 0.0000
vn 0.8664 -0.4993 0.0000
vn -0.8659 -0.5001 0.0000
usemtl SVGMat
s off
f 111//46 110//46 109//46
f 113//47 114//47 112//47
s 1
f 116//48 118//49 117//49 115//48
f 118//49 120//50 119//50 117//49
f 120//50 116//48 115//48 119//50
o Curve.012
v -0.734012 0.322807 0.119320
v -0.918461 0.641946 0.119320
v -0.550405 0.641946 0.119320
v -0.734012 0.322807 -0.119418
v -0.918461 0.641946 -0.119418
v -0.550405 0.641946 -0.119418
v -0.734012 0.322807 -0.119418
v -0.734012 0.322807 0.119320
v -0.918461 0.641946 -0.119418
v -0.918461 0.641946 0.119320
v -0.550405 0.641946 -0.119418
v -0.550405 0.641946 0.119320
vn 0.0000 -0.0000 1.0000
vn 0.0000 0.0000 -1.0000
vn 0.0010 -1.0000 0.0000
vn -0.8661 0.4998 0.0000
vn 0.8656 0.5007 0.0000
usemtl SVGMat
s off
f 121//51 123//51 122//51
f 126//52 124//52 125//52
s 1
f 128//53 130//54 129//54 127//53
f 130//54 132//55 131//55 129//54
f 132//55 128//53 127//53 131//55
o Curve.011
v -0.182349 0.004510 0.089478
v -0.550405 0.004510 0.089478
v -0.365956 0.322807 0.089478
v -0.182349 0.004510 -0.089576
v -0.550405 0.004510 -0.089576
v -0.365956 0.322807 -0.089576
v -0.182349 0.004510 -0.089576
v -0.182349 0.004510 0.089478
v -0.550405 0.004510 -0.089576
v -0.550405 0.004510 0.089478
v -0.365956 0.322807 -0.089576
v -0.365956 0.322807 0.089478
vn 0.0000 -0.0000 1.0000
vn 0.0000 0.0000 -1.0000
vn 0.8659 -0.5001 0.0000
vn -0.8664 -0.4993 0.0000
vn 0.0010 1.0000 0.0000
usemtl SVGMat
s off
f 134//56 133//56 135//56
f 136//57 137//57 138//57
s 1
f 140//58 142//59 141//59 139//58
f 142//59 144//60 143//60 141//59
f 144//60 140//58 139//58 143//60
o Curve.010
v -0.182349 0.004510 0.119320
v -0.365956 0.322807 0.119320
v 0.002100 0.322807 0.119320
v -0.182349 0.004510 -0.119418
v -0.365956 0.322807 -0.119418
v 0.002100 0.322807 -0.119418
v -0.182349 0.004510 -0.119418
v -0.182349 0.004510 0.119320
v -0.365956 0.322807 -0.119418
v -0.365956 0.322807 0.119320
v 0.002100 0.322807 -0.119418
v 0.002100 0.322807 0.119320
vn 0.0000 -0.0000 1.0000
vn 0.0000 0.0000 -1.0000
vn -0.0010 -1.0000 0.0000
vn -0.8659 0.5001 0.0000
vn 0.8664 0.4993 0.0000
usemtl SVGMat
s off
f 145//61 147//61 146//61
f 150//62 148//62 149//62
s 1
f 152//63 154//64 153//64 151//63
f 154//64 156//65 155//65 153//64
f 156//65 152//63 151//63 155//65
o Curve.009
v 0.002100 0.322807 0.089478
v -0.365956 0.322807 0.089478
v -0.182349 0.641946 0.089478
v 0.002100 0.322807 -0.089576
v -0.365956 0.322807 -0.089576
v -0.182349 0.641946 -0.089576
v 0.002100 0.322807 -0.089576
v 0.002100 0.322807 0.089478
v -0.365956 0.322807 -0.089576
v -0.365956 0.322807 0.089478
v -0.182349 0.641946 -0.089576
v -0.182349 0.641946 0.089478
vn 0.0000 -0.0000 1.0000
vn 0.0000 0.0000 -1.0000
vn 0.8661 -0.4998 0.0000
vn -0.8656 -0.5007 0.0000
vn -0.0010 1.0000 0.0000
usemtl SVGMat
s off
f 158//66 157//66 159//66
f 160//67 161//67 162//67
s 1
f 164//68 166//69 165//69 163//68
f 166//69 168//70 167//70 165//69
f 168//70 164//68 163//68 167//70
o Curve.008
v 0.002100 0.322807 0.119320
v -0.182349 0.641946 0.119320
v 0.185708 0.641946 0.119320
v 0.002100 0.322807 -0.119418
v -0.182349 0.641946 -0.119418
v 0.185708 0.641946 -0.119418
v 0.002100 0.322807 -0.119418
v 0.002100 0.322807 0.119320
v -0.182349 0.641946 -0.119418
v -0.182349 0.641946 0.119320
v 0.185708 0.641946 -0.119418
v 0.185708 0.641946 0.119320
vn 0.0000 -0.0000 1.0000
vn 0.0000 0.0000 -1.0000
vn 0.0010 -1.0000 0.0000
vn -0.8661 0.4998 0.0000
vn 0.8656 0.5007 0.0000
usemtl SVGMat
s off
f 169//71 171//71 170//71
f 174//72 172//72 173//72
s 1
f 176//73 178//74 177//74 175//73
f 178//74 180//75 179//75 177//74
f 180//75 176//73 175//73 179//75
o Curve.007
v -0.550405 0.641946 0.089478
v -0.918461 0.641946 0.089478
v -0.734012 0.961086 0.089478
v -0.550405 0.641946 -0.089576
v -0.918461 0.641946 -0.089576
v -0.734012 0.961086 -0.089576
v -0.550405 0.641946 -0.089576
v -0.550405 0.641946 0.089478
v -0.918461 0.641946 -0.089576
v -0.918461 0.641946 0.089478
v -0.734012 0.961086 -0.089576
v -0.734012 0.961086 0.089478
vn 0.0000 -0.0000 1.0000
vn 0.0000 0.0000 -1.0000
vn 0.8656 -0.5007 0.0000
vn -0.8661 -0.4998 0.0000
vn 0.0010 1.0000 0.0000
usemtl SVGMat
s off
f 182//76 181//76 183//76
f 184//77 185//77 186//77
s 1
f 188//78 190//79 189//79 187//78
f 190//79 192//80 191//80 189//79
f 192//80 188//78 187//78 191//80
o Curve.006
v -0.550405 0.641946 0.119320
v -0.734012 0.961086 0.119320
v -0.365956 0.961086 0.119320
v -0.550405 0.641946 -0.119418
v -0.734012 0.961086 -0.119418
v -0.365956 0.961086 -0.119418
v -0.550405 0.641946 -0.119418
v -0.550405 0.641946 0.119320
v -0.734012 0.961086 -0.119418
v -0.734012 0.961086 0.119320
v -0.365956 0.961086 -0.119418
v -0.365956 0.961086 0.119320
vn 0.0000 -0.0000 1.0000
vn 0.0000 0.0000 -1.0000
vn -0.0010 -1.0000 0.0000
vn -0.8656 0.5007 0.0000
vn 0.8661 0.4998 0.0000
usemtl SVGMat
s off
f 193//81 195//81 194//81
f 198//82 196//82 197//82
s 1
f 200//83 202//84 201//84 199//83
f 202//84 204//85 203//85 201//84
f 204//85 200//83 199//83 203//85
o Curve.005
v -0.365956 0.961086 0.089478
v -0.734012 0.961086 0.089478
v -0.550405 1.279383 0.089478
v -0.365956 0.961086 -0.089576
v -0.734012 0.961086 -0.089576
v -0.550405 1.279383 -0.089576
v -0.365956 0.961086 -0.089576
v -0.365956 0.961086 0.089478
v -0.734012 0.961086 -0.089576
v -0.734012 0.961086 0.089478
v -0.550405 1.279383 -0.089576
v -0.550405 1.279383 0.089478
vn 0.0000 -0.0000 1.0000
vn 0.0000 0.0000 -1.0000
vn 0.8664 -0.4993 0.0000
vn -0.8659 -0.5001 0.0000
vn -0.0010 1.0000 0.0000
usemtl SVGMat
s off
f 206//86 205//86 207//86
f 208//87 209//87 210//87
s 1
f 212//88 214//89 213//89 211//88
f 214//89 216//90 215//90 213//89
f 216//90 212//88 211//88 215//90
o Curve.004
v -0.365956 0.961086 0.119320
v -0.550405 1.279383 0.119320
v -0.182349 1.279383 0.119320
v -0.365956 0.961086 -0.119418
v -0.550405 1.279383 -0.119418
v -0.182349 1.279383 -0.119418
v -0.365956 0.961086 -0.119418
v -0.365956 0.961086 0.119320
v -0.550405 1.279383 -0.119418
v -0.550405 1.279383 0.119320
v -0.182349 1.279383 -0.119418
v -0.182349 1.279383 0.119320
vn 0.0000 -0.0000 1.0000
vn 0.0000 0.0000 -1.0000
vn 0.0010 -1.0000 0.0000
vn -0.8664 0.4993 0.0000
vn 0.8659 0.5001 0.0000
usemtl SVGMat
s off
f 217//91 219//91 218//91
f 222//92 220//92 221//92
s 1
f 224//93 226//94 225//94 223//93
f 226//94 228//95 227//95 225//94
f 228//95 224//93 223//93 227//95
o Curve.003
v 0.185708 0.641946 0.119320
v -0.182349 0.641946 0.119320
v 0.002100 0.961086 0.119320
v 0.185708 0.641946 -0.119418
v -0.182349 0.641946 -0.119418
v 0.002100 0.961086 -0.119418
v 0.185708 0.641946 -0.119418
v 0.185708 0.641946 0.119320
v -0.182349 0.641946 -0.119418
v -0.182349 0.641946 0.119320
v 0.002100 0.961086 -0.119418
v 0.002100 0.961086 0.119320
vn 0.0000 -0.0000 1.0000
vn 0.0000 0.0000 -1.0000
vn 0.8656 -0.5007 0.0000
vn -0.8661 -0.4998 0.0000
vn 0.0010 1.0000 0.0000
usemtl SVGMat
s off
f 230//96 229//96 231//96
f 232//97 233//97 234//97
s 1
f 236//98 238//99 237//99 235//98
f 238//99 240//100 239//100 237//99
f 240//100 236//98 235//98 239//100
o Curve.002
v 0.185708 0.641946 0.089478
v 0.002100 0.961086 0.089478
v 0.370157 0.961086 0.089478
v 0.185708 0.641946 -0.089576
v 0.002100 0.961086 -0.089576
v 0.370157 0.961086 -0.089576
v 0.185708 0.641946 -0.089576
v 0.185708 0.641946 0.089478
v 0.002100 0.961086 -0.089576
v 0.002100 0.961086 0.089478
v 0.370157 0.961086 -0.089576
v 0.370157 0.961086 0.089478
vn 0.0000 -0.0000 1.0000
vn 0.0000 0.0000 -1.0000
vn -0.0010 -1.0000 0.0000
vn -0.8656 0.5007 0.0000
vn 0.8661 0.4998 0.0000
usemtl SVGMat
s off
f 241//101 243//101 242//101
f 246//102 244//102 245//102
s 1
f 248//103 250//104 249//104 247//103
f 250//104 252//105 251//105 249//104
f 252//105 248//103 247//103 251//105
o Curve.001
v 0.370157 0.961086 0.119320
v 0.002100 0.961086 0.119320
v 0.185708 1.279383 0.119320
v 0.370157 0.961086 -0.119418
v 0.002100 0.961086 -0.119418
v 0.185708 1.279383 -0.119418
v 0.370157 0.961086 -0.119418
v 0.370157 0.961086 0.119320
v 0.002100 0.961086 -0.119418
v 0.002100 0.961086 0.119320
v 0.185708 1.279383 -0.119418
v 0.185708 1.279383 0.119320
vn 0.0000 -0.0000 1.0000
vn 0.0000 0.0000 -1.0000
vn 0.8664 -0.4993 0.0000
vn -0.8659 -0.5001 0.0000
vn -0.0010 1.0000 0.0000
usemtl SVGMat
s off
f 254//106 253//106 255//106
f 256//107 257//107 258//107
s 1
f 260//108 262//109 261//109 259//108
f 262//109 264//110 263//110 261//109
f 264//110 260//108 259//108 263//110
o Curve
v -0.182349 1.279383 -0.000049
v -0.550405 1.279383 -0.000049
v -0.918462 0.641946 -0.000049
v -0.550405 0.004510 -0.000049
v -0.182349 0.004510 -0.000049
v 0.370157 0.961086 -0.000049
v 0.554606 0.641946 -0.000049
v 0.186550 0.004510 -0.000049
v 0.554606 0.004510 -0.000049
v 0.922662 0.641946 -0.000049
v 0.554606 1.279383 -0.000049
v 0.186550 1.279383 -0.000049
v -0.365956 0.322807 -0.000049
v -0.550405 0.641946 -0.000049
vn 0.0000 -0.0000 1.0000
usemtl SVGMat
s off
f 267//111 265//111 266//111
f 267//111 278//111 265//111
f 277//111 275//111 276//111
f 277//111 270//111 275//111
f 270//111 274//111 275//111
f 277//111 269//111 270//111
f 271//111 274//111 270//111
f 268//111 278//111 267//111
f 268//111 277//111 278//111
f 272//111 274//111 271//111
f 272//111 273//111 274//111
f 268//111 269//111 277//111
